<?xml version="1.0" encoding="UTF-8" standalone="no"?>
<!-- Created with Inkscape (http://www.inkscape.org/) -->

<svg
   xmlns:dc="http://purl.org/dc/elements/1.1/"
   xmlns:cc="http://creativecommons.org/ns#"
   xmlns:rdf="http://www.w3.org/1999/02/22-rdf-syntax-ns#"
   xmlns:svg="http://www.w3.org/2000/svg"
   xmlns="http://www.w3.org/2000/svg"
   xmlns:sodipodi="http://sodipodi.sourceforge.net/DTD/sodipodi-0.dtd"
   xmlns:inkscape="http://www.inkscape.org/namespaces/inkscape"
   width="619.099"
   height="619.099"
   id="svg2"
   version="1.1"
   inkscape:version="0.48.5 r10040"
   sodipodi:docname="drawing.svg">
  <sodipodi:namedview
     id="base"
     pagecolor="#ffffff"
     bordercolor="#666666"
     borderopacity="1.0"
     inkscape:pageopacity="0.0"
     inkscape:pageshadow="2"
     inkscape:zoom="0.10307946"
     inkscape:cx="-15.824439"
     inkscape:cy="-926.02894"
     inkscape:document-units="px"
     inkscape:current-layer="svg2"
     showgrid="false"
     inkscape:window-width="1920"
     inkscape:window-height="1059"
     inkscape:window-x="0"
     inkscape:window-y="21"
     inkscape:window-maximized="0"
     fit-margin-top="0"
     fit-margin-left="0"
     fit-margin-right="0"
     fit-margin-bottom="0" />
  <defs
     id="defs4" />
  <metadata
     id="metadata7">
    <rdf:RDF>
      <cc:Work
         rdf:about="">
        <dc:format>image/svg+xml</dc:format>
        <dc:type
           rdf:resource="http://purl.org/dc/dcmitype/StillImage" />
        <dc:title />
      </cc:Work>
    </rdf:RDF>
  </metadata>
  <g
     inkscape:label="Layer 1"
     inkscape:groupmode="layer"
     id="layer1"
     transform="translate(-48.34573,-203.66719)">
    <rect
       style="color:#000000;fill:#090451;fill-opacity:1;fill-rule:evenodd;stroke:none;stroke-width:9.30000019;marker:none;visibility:visible;display:inline;overflow:visible;enable-background:accumulate"
       id="rect2989"
       width="619.099"
       height="619.099"
       x="48.34573"
       y="203.66719" />
    <text
       xml:space="preserve"
       style="font-size:22px;font-style:normal;font-variant:normal;font-weight:normal;font-stretch:normal;line-height:125%;letter-spacing:0px;word-spacing:0px;fill:#000000;fill-opacity:1;stroke:none;font-family:cmr10;-inkscape-font-specification:cmr10"
       x="103.75481"
       y="621.05084"
       id="text4390"
       sodipodi:linespacing="125%"><tspan
         sodipodi:role="line"
         id="tspan4392"
         x="103.75481"
         y="621.05084" /></text>
  </g>
  <path
     style="fill:#ec6b1d;fill-opacity:1;stroke:none"
     d="m 303.76823,93.174498 -4.21875,12.906252 -0.875,7 0.3125,5.78125 -16.3125,1.59375 -0.8125,-5.71875 -2.21875,-6.6875 -6.65625,-11.843752 -11.3125,2.25 -1.625,13.468752 0.5,7.03125 1.4375,5.625 -15.6875,4.75 -1.90625,-5.46875 -3.5,-6.125 -8.8125,-10.3125 -10.6875,4.4375 1.03125,13.53125 1.875,6.78125 2.53125,5.21875 -14.46875,7.75 -2.9375,-5 -4.625,-5.3125 -10.65625,-8.40625 -9.625,6.4375 3.65625,13.0625 3.1875,6.3125 3.46875,4.625 -12.6875,10.40625 -3.84375,-4.34375 -5.5625,-4.3125 -12.125,-6.15625 -8.15625,8.1875 6.125,12.09375 4.34375,5.5625 4.3125,3.875 -10.40625,12.65625 -4.625,-3.46875 -6.28125,-3.15625 -13.09375,-3.65625 -6.40625,9.59375 8.375,10.6875 5.34375,4.59375 4.96875,2.9375 -7.71875,14.46875 -5.21875,-2.5 -6.78125,-1.875 -13.5625,-1.03125 -4.40625,10.65625 10.3125,8.84375 6.125,3.46875 5.46875,1.9375 -4.78125,15.6875 -5.59375,-1.46875 -7.03125,-0.5 -13.46875,1.625 -2.25,11.34375 11.8125,6.65625 6.6875,2.1875 5.75,0.8125 -1.625,16.34375 -5.78125,-0.34375 -7,0.875 -12.875,4.21875 0,11.5625 12.875,4.21875 7,0.875 5.78125,-0.34375 1.625,16.34375 -5.75,0.8125 -6.6875,2.21875 -11.8125,6.65625 2.25,11.3125 13.46875,1.625 7.03125,-0.5 5.59375,-1.46875 4.78125,15.71875 -5.46875,1.90625 -6.125,3.46875 -10.3125,8.84375 4.40625,10.65625 13.5625,-1.03125 6.78125,-1.875 5.21875,-2.5 7.71875,14.46875 -4.96875,2.9375 -5.34375,4.59375 -8.375,10.6875 6.40625,9.59375 13.09375,-3.65625 6.28125,-3.15625 4.625,-3.46875 10.40625,12.65625 -4.3125,3.875 -4.34375,5.5625 -6.125,12.09375 8.15625,8.1875 12.125,-6.15625 5.5625,-4.3125 3.84375,-4.3125 12.6875,10.375 -3.46875,4.65625 -3.1875,6.28125 -3.65625,13.0625 9.625,6.4375 10.65625,-8.375 4.625,-5.34375 2.9375,-5 14.46875,7.75 -2.53125,5.21875 -1.875,6.78125 -1.03125,13.53125 10.6875,4.4375 8.8125,-10.3125 3.5,-6.125 1.90625,-5.46875 15.6875,4.75 -1.4375,5.625 -0.5,7.03125 1.625,13.46875 11.3125,2.25 6.65625,-11.84375 2.21875,-6.6875 0.8125,-5.71875 16.3125,1.59375 -0.3125,5.78125 0.875,7 4.21875,12.90625 11.53125,0 4.25,-12.90625 0.84375,-7 -0.3125,-5.78125 16.3125,-1.59375 0.8125,5.71875 2.21875,6.6875 6.65625,11.84375 11.34375,-2.25 1.625,-13.46875 -0.53125,-7.03125 -1.4375,-5.625 15.6875,-4.75 1.90625,5.46875 3.5,6.125 8.84375,10.3125 10.65625,-4.4375 -1.03125,-13.53125 -1.875,-6.78125 -2.5,-5.21875 14.4375,-7.75 2.96875,5 4.59375,5.34375 10.6875,8.375 9.59375,-6.4375 -3.65625,-13.0625 -3.15625,-6.28125 -3.5,-4.65625 12.6875,-10.375 3.875,4.3125 5.5625,4.3125 12.09375,6.15625 8.15625,-8.1875 -6.125,-12.09375 -4.34375,-5.5625 -4.3125,-3.875 10.40625,-12.65625 4.625,3.46875 6.3125,3.15625 13.0625,3.65625 6.40625,-9.59375 -8.375,-10.6875 -5.34375,-4.59375 -4.96875,-2.9375 7.71875,-14.46875 5.21875,2.5 6.8125,1.875 13.53125,1.03125 4.40625,-10.65625 -10.28125,-8.84375 -6.15625,-3.46875 -5.46875,-1.90625 4.78125,-15.71875 5.59375,1.46875 7.03125,0.5 13.46875,-1.625 2.28125,-11.3125 -11.84375,-6.65625 -6.6875,-2.21875 -5.75,-0.8125 1.625,-16.34375 5.78125,0.34375 7,-0.875 12.90625,-4.21875 0,-11.5625 -12.90625,-4.21875 -7,-0.875 -5.78125,0.34375 -1.625,-16.34375 5.75,-0.8125 6.6875,-2.1875 11.84375,-6.65625 -2.28125,-11.34375 -13.46875,-1.625 -7.03125,0.5 -5.59375,1.46875 -4.78125,-15.6875 5.46875,-1.9375 6.15625,-3.46875 10.28125,-8.84375 -4.40625,-10.65625 -13.53125,1.03125 -6.8125,1.875 -5.21875,2.5 -7.71875,-14.46875 4.96875,-2.9375 5.34375,-4.59375 8.375,-10.6875 -6.40625,-9.59375 -13.0625,3.65625 -6.3125,3.15625 -4.625,3.46875 -10.40625,-12.65625 4.3125,-3.875 4.34375,-5.5625 6.125,-12.09375 -8.15625,-8.1875 -12.09375,6.15625 -5.5625,4.3125 -3.875,4.34375 -12.6875,-10.40625 3.5,-4.625 3.15625,-6.3125 3.65625,-13.0625 -9.59375,-6.4375 -10.6875,8.40625 -4.59375,5.3125 -2.96875,5 -14.4375,-7.75 2.5,-5.21875 1.875,-6.78125 1.03125,-13.53125 -10.65625,-4.4375 -8.84375,10.3125 -3.5,6.125 -1.90625,5.46875 -15.6875,-4.75 1.4375,-5.625 0.53125,-7.03125 -1.625,-13.468752 -11.34375,-2.25 -6.65625,11.843752 -2.21875,6.6875 -0.8125,5.71875 -16.3125,-1.59375 0.3125,-5.78125 -0.84375,-7 -4.25,-12.906252 -11.53125,0 z m 5.78125,54.968752 c 89.13995,0 161.40625,72.2663 161.40625,161.40625 0,89.13995 -72.2663,161.40625 -161.40625,161.40625 -89.13995,0 -161.40625,-72.2663 -161.40625,-161.40625 0,-89.13995 72.2663,-161.40625 161.40625,-161.40625 z"
     id="path4363"
     inkscape:connector-curvature="0" />
  <path
     style="color:#000000;fill:#ec6b1d;fill-opacity:1;fill-rule:nonzero;stroke:none;stroke-width:9.30000019;marker:none;visibility:visible;display:inline;overflow:visible;enable-background:accumulate"
     d="m 309.56708,172.51314 c -35.06394,0.01 -70.14944,13.39949 -96.90626,40.15629 -53.51361,53.51351 -53.51361,140.2676 0,193.7812 53.51363,53.5136 140.26763,53.5137 193.78126,0 27.09124,-27.09119 40.46361,-62.7123 40.125,-98.2188 l -54.00001,0 c 0.34883,21.70051 -7.69646,43.509 -24.25,60.0626 -30.05095,30.0508 -77.39981,32.2218 -110,6.59371 l 116.59375,-116.59371 38.32129,-38.37969 c -2.28662,-2.6659 -4.26512,-4.75168 -6.79001,-7.27658 -26.7568,-26.7568 -61.81107,-40.1305 -96.87499,-40.12499 z m 0.0312,53.99999 c 3.04002,1e-5 6.09963,0.16541 9.125,0.50001 l -91.71873,91.68747 c -2.67666,-24.203 5.25333,-49.3158 23.8125,-67.875 16.23927,-16.2392 37.50104,-24.3368 58.78125,-24.3125 z"
     id="path3078"
     inkscape:connector-curvature="0"
     sodipodi:nodetypes="csssccscccsccccscc" />
</svg>
