<?xml version="1.0" encoding="UTF-8" standalone="no"?>
<svg
   xmlns:dc="http://purl.org/dc/elements/1.1/"
   xmlns:cc="http://creativecommons.org/ns#"
   xmlns:rdf="http://www.w3.org/1999/02/22-rdf-syntax-ns#"
   xmlns:svg="http://www.w3.org/2000/svg"
   xmlns="http://www.w3.org/2000/svg"
   xmlns:sodipodi="http://sodipodi.sourceforge.net/DTD/sodipodi-0.dtd"
   xmlns:inkscape="http://www.inkscape.org/namespaces/inkscape"
   version="1.1"
   width="128px"
   height="128px"
   id="RSSicon"
   viewBox="0 0 256 256"
   inkscape:version="0.48.5 r10040"
   sodipodi:docname="Feed-icon.svg">
  <metadata
     id="metadata34">
    <rdf:RDF>
      <cc:Work
         rdf:about="">
        <dc:format>image/svg+xml</dc:format>
        <dc:type
           rdf:resource="http://purl.org/dc/dcmitype/StillImage" />
      </cc:Work>
    </rdf:RDF>
  </metadata>
  <sodipodi:namedview
     pagecolor="#b21f80"
     bordercolor="#666666"
     borderopacity="1"
     objecttolerance="10"
     gridtolerance="10"
     guidetolerance="10"
     inkscape:pageopacity="0"
     inkscape:pageshadow="2"
     inkscape:window-width="1920"
     inkscape:window-height="1080"
     id="namedview32"
     showgrid="false"
     inkscape:zoom="1.8170787"
     inkscape:cx="143.32447"
     inkscape:cy="114.25032"
     inkscape:window-x="1920"
     inkscape:window-y="0"
     inkscape:window-maximized="0"
     inkscape:current-layer="RSSicon" />
  <defs
     id="defs3">
    <linearGradient
       x1="0.085"
       y1="0.085"
       x2="0.915"
       y2="0.915"
       id="RSSg">
      <stop
         offset="0.0"
         stop-color="#E3702D"
         id="stop6" />
      <stop
         offset="0.1071"
         stop-color="#EA7D31"
         id="stop8" />
      <stop
         offset="0.3503"
         stop-color="#F69537"
         id="stop10" />
      <stop
         offset="0.5"
         stop-color="#FB9E3A"
         id="stop12" />
      <stop
         offset="0.7016"
         stop-color="#EA7C31"
         id="stop14" />
      <stop
         offset="0.8866"
         stop-color="#DE642B"
         id="stop16" />
      <stop
         offset="1.0"
         stop-color="#D95B29"
         id="stop18" />
    </linearGradient>
  </defs>
  <path
     style="opacity:1;color:#000000;fill:#ffffff;fill-opacity:1;fill-rule:nonzero;stroke:none;stroke-width:9.30000019000000044;marker:none;visibility:visible;display:inline;overflow:visible;enable-background:accumulate"
     d="M 64 0 C 28.653776 -9.4739031e-15 0 28.653776 0 64 C -9.4739031e-15 99.346224 28.653776 128 64 128 C 99.346224 128 128 99.346224 128 64 C 128 28.653776 99.346224 -1.4210855e-14 64 0 z M 31.9375 31.9375 A 64.11081 64.11081 0 0 1 96.0625 96.0625 L 83.21875 96.0625 A 51.28865 51.28865 0 0 0 31.9375 44.78125 L 31.9375 31.9375 z M 31.9375 53.5625 A 42.496307 42.496307 0 0 1 74.4375 96.0625 L 61.96875 96.0625 A 30.040494 30.040494 0 0 0 31.9375 66.03125 L 31.9375 53.5625 z M 40.75 78.46875 C 45.605875 78.46875 49.53125 82.425375 49.53125 87.28125 C 49.53125 92.137125 45.605875 96.0625 40.75 96.0625 C 35.894125 96.0625 31.9375 92.137125 31.9375 87.28125 C 31.9375 82.425375 35.894125 78.46875 40.75 78.46875 z "
     transform="scale(2,2)"
     id="path3011" />
</svg>
